# 3ds Max Wavefront OBJ Exporter v0.97b - (c)2007 guruware
# File Created: 08.12.2016 12:46:54

#
# object GeoSphere001
#

v  -0.5549 10.0000 -0.9248
v  4.7024 8.5065 -0.9248
v  1.0697 8.5065 -5.9248
v  8.3894 4.4721 -0.9248
v  6.3270 5.2573 -5.9248
v  2.2091 4.4721 -9.4313
v  -4.8081 8.5065 -4.0150
v  -3.1835 5.2573 -9.0150
v  -7.7909 4.4721 -6.1821
v  -4.8081 8.5065 2.1654
v  -9.0614 5.2573 -0.9248
v  -7.7909 4.4721 4.3325
v  1.0697 8.5065 4.0752
v  -3.1835 5.2573 7.1654
v  2.2091 4.4721 7.5817
v  6.3270 5.2573 4.0752
v  8.9557 0.0000 2.1654
v  8.9557 0.0000 -4.0150
v  6.6812 -4.4721 4.3325
v  7.9516 -5.2573 -0.9248
v  6.6812 -4.4721 -6.1821
v  5.3230 0.0000 -9.0150
v  -0.5549 0.0000 -10.9248
v  2.0738 -5.2573 -9.0150
v  -3.3188 -4.4721 -9.4313
v  -6.4327 0.0000 -9.0150
v  -10.0654 0.0000 -4.0150
v  -7.4368 -5.2573 -5.9248
v  -9.4991 -4.4721 -0.9248
v  -10.0654 0.0000 2.1654
v  -6.4327 0.0000 7.1654
v  -7.4368 -5.2573 4.0752
v  -3.3188 -4.4721 7.5817
v  -0.5549 0.0000 9.0752
v  5.3230 0.0000 7.1654
v  2.0738 -5.2573 7.1654
v  -0.5549 -10.0000 -0.9248
v  -2.1795 -8.5065 -5.9248
v  3.6984 -8.5065 -4.0150
v  -5.8122 -8.5065 -0.9248
v  -2.1795 -8.5065 4.0752
v  3.6984 -8.5065 2.1654
# 42 vertices

vn 0.2680 0.9435 -0.1947
vn 0.7240 0.6617 -0.1947
vn 0.4911 0.7947 -0.3568
vn 0.4089 0.6617 -0.6284
vn -0.1024 0.9435 -0.3151
vn 0.0385 0.6617 -0.7488
vn -0.1876 0.7947 -0.5774
vn -0.4713 0.6617 -0.5831
vn -0.3313 0.9435 0.0000
vn -0.7002 0.6617 -0.2680
vn -0.6071 0.7947 0.0000
vn -0.7002 0.6617 0.2680
vn -0.1024 0.9435 0.3151
vn -0.4713 0.6617 0.5831
vn -0.1876 0.7947 0.5774
vn 0.0385 0.6617 0.7488
vn 0.2680 0.9435 0.1947
vn 0.4089 0.6617 0.6284
vn 0.4911 0.7947 0.3568
vn 0.7240 0.6617 0.1947
vn 0.9921 0.1256 -0.0000
vn 0.9050 -0.3304 0.2680
vn 0.9822 -0.1876 -0.0000
vn 0.9050 -0.3304 -0.2680
vn 0.3066 0.1256 -0.9435
vn 0.5346 -0.3304 -0.7779
vn 0.3035 -0.1876 -0.9342
vn 0.0247 -0.3304 -0.9435
vn -0.8026 0.1256 -0.5831
vn -0.5746 -0.3304 -0.7488
vn -0.7947 -0.1876 -0.5774
vn -0.8897 -0.3304 -0.3151
vn -0.8026 0.1256 0.5831
vn -0.8897 -0.3304 0.3151
vn -0.7947 -0.1876 0.5774
vn -0.5746 -0.3304 0.7488
vn 0.3066 0.1256 0.9435
vn 0.0247 -0.3304 0.9435
vn 0.3035 -0.1876 0.9342
vn 0.5346 -0.3304 0.7779
vn 0.8026 -0.1256 -0.5831
vn 0.5746 0.3304 -0.7488
vn 0.7947 0.1876 -0.5774
vn 0.8897 0.3304 -0.3151
vn -0.3066 -0.1256 -0.9435
vn -0.5346 0.3304 -0.7779
vn -0.3035 0.1876 -0.9342
vn -0.0247 0.3304 -0.9435
vn -0.9921 -0.1256 -0.0000
vn -0.9050 0.3304 0.2680
vn -0.9822 0.1876 -0.0000
vn -0.9050 0.3304 -0.2680
vn -0.3066 -0.1256 0.9435
vn -0.0247 0.3304 0.9435
vn -0.3035 0.1876 0.9342
vn -0.5346 0.3304 0.7779
vn 0.8026 -0.1256 0.5831
vn 0.8897 0.3304 0.3151
vn 0.7947 0.1876 0.5774
vn 0.5746 0.3304 0.7488
vn 0.1024 -0.9435 -0.3151
vn -0.0385 -0.6617 -0.7488
vn 0.1876 -0.7947 -0.5774
vn 0.4713 -0.6617 -0.5831
vn -0.2680 -0.9435 -0.1947
vn -0.7240 -0.6617 -0.1947
vn -0.4911 -0.7947 -0.3568
vn -0.4089 -0.6617 -0.6284
vn -0.2680 -0.9435 0.1947
vn -0.4089 -0.6617 0.6284
vn -0.4911 -0.7947 0.3568
vn -0.7240 -0.6617 0.1947
vn 0.1024 -0.9435 0.3151
vn 0.4713 -0.6617 0.5831
vn 0.1876 -0.7947 0.5774
vn -0.0385 -0.6617 0.7488
vn 0.3313 -0.9435 -0.0000
vn 0.7002 -0.6617 -0.2680
vn 0.6071 -0.7947 -0.0000
vn 0.7002 -0.6617 0.2680
# 80 vertex normals

vt 0.6000 1.0000 10.0000
vt 0.5000 0.8238 10.0000
vt 0.7000 0.8238 10.0000
vt 0.5000 0.6476 10.0000
vt 0.6000 0.6762 10.0000
vt 0.7000 0.6476 10.0000
vt 0.8000 1.0000 10.0000
vt 0.9000 0.8238 10.0000
vt 0.8000 0.6762 10.0000
vt 0.9000 0.6476 10.0000
vt 0.0000 1.0000 10.0000
vt -0.1000 0.8238 10.0000
vt 0.1000 0.8238 10.0000
vt -0.1000 0.6476 10.0000
vt 0.0000 0.6762 10.0000
vt 0.1000 0.6476 10.0000
vt 0.2000 1.0000 10.0000
vt 0.3000 0.8238 10.0000
vt 0.2000 0.6762 10.0000
vt 0.3000 0.6476 10.0000
vt 0.4000 1.0000 10.0000
vt 0.4000 0.6762 10.0000
vt 0.4500 0.5000 10.0000
vt 0.5500 0.5000 10.0000
vt 0.4000 0.3524 10.0000
vt 0.5000 0.3238 10.0000
vt 0.6000 0.3524 10.0000
vt 0.6500 0.5000 10.0000
vt 0.7500 0.5000 10.0000
vt 0.7000 0.3238 10.0000
vt 0.8000 0.3524 10.0000
vt 0.8500 0.5000 10.0000
vt 0.9500 0.5000 10.0000
vt 0.9000 0.3238 10.0000
vt -0.0500 0.5000 10.0000
vt -0.1000 0.3238 10.0000
vt 0.0000 0.3524 10.0000
vt 0.0500 0.5000 10.0000
vt 0.1500 0.5000 10.0000
vt 0.1000 0.3238 10.0000
vt 0.2000 0.3524 10.0000
vt 0.2500 0.5000 10.0000
vt 0.3500 0.5000 10.0000
vt 0.3000 0.3238 10.0000
vt 0.7000 0.0000 10.0000
vt 0.8000 0.1762 10.0000
vt 0.6000 0.1762 10.0000
vt -0.1000 0.0000 10.0000
vt 0.0000 0.1762 10.0000
vt -0.2000 0.1762 10.0000
vt 0.1000 0.0000 10.0000
vt 0.2000 0.1762 10.0000
vt 0.3000 0.0000 10.0000
vt 0.4000 0.1762 10.0000
vt 0.5000 0.0000 10.0000
# 55 texture coords

g GeoSphere001
f 1/1/1 2/2/1 3/3/1 
f 2/2/2 4/4/2 5/5/2 
f 2/2/3 5/5/3 3/3/3 
f 3/3/4 5/5/4 6/6/4 
f 1/7/5 3/3/5 7/8/5 
f 3/3/6 6/6/6 8/9/6 
f 3/3/7 8/9/7 7/8/7 
f 7/8/8 8/9/8 9/10/8 
f 1/11/9 7/12/9 10/13/9 
f 7/12/10 9/14/10 11/15/10 
f 7/12/11 11/15/11 10/13/11 
f 10/13/12 11/15/12 12/16/12 
f 1/17/13 10/13/13 13/18/13 
f 10/13/14 12/16/14 14/19/14 
f 10/13/15 14/19/15 13/18/15 
f 13/18/16 14/19/16 15/20/16 
f 1/21/17 13/18/17 2/2/17 
f 13/18/18 15/20/18 16/22/18 
f 13/18/19 16/22/19 2/2/19 
f 2/2/20 16/22/20 4/4/20 
f 4/4/21 17/23/21 18/24/21 
f 17/23/22 19/25/22 20/26/22 
f 17/23/23 20/26/23 18/24/23 
f 18/24/24 20/26/24 21/27/24 
f 6/6/25 22/28/25 23/29/25 
f 22/28/26 21/27/26 24/30/26 
f 22/28/27 24/30/27 23/29/27 
f 23/29/28 24/30/28 25/31/28 
f 9/10/29 26/32/29 27/33/29 
f 26/32/30 25/31/30 28/34/30 
f 26/32/31 28/34/31 27/33/31 
f 27/35/32 28/36/32 29/37/32 
f 12/16/33 30/38/33 31/39/33 
f 30/38/34 29/37/34 32/40/34 
f 30/38/35 32/40/35 31/39/35 
f 31/39/36 32/40/36 33/41/36 
f 15/20/37 34/42/37 35/43/37 
f 34/42/38 33/41/38 36/44/38 
f 34/42/39 36/44/39 35/43/39 
f 35/43/40 36/44/40 19/25/40 
f 21/27/41 22/28/41 18/24/41 
f 22/28/42 6/6/42 5/5/42 
f 22/28/43 5/5/43 18/24/43 
f 18/24/44 5/5/44 4/4/44 
f 25/31/45 26/32/45 23/29/45 
f 26/32/46 9/10/46 8/9/46 
f 26/32/47 8/9/47 23/29/47 
f 23/29/48 8/9/48 6/6/48 
f 29/37/49 30/38/49 27/35/49 
f 30/38/50 12/16/50 11/15/50 
f 30/38/51 11/15/51 27/35/51 
f 27/35/52 11/15/52 9/14/52 
f 33/41/53 34/42/53 31/39/53 
f 34/42/54 15/20/54 14/19/54 
f 34/42/55 14/19/55 31/39/55 
f 31/39/56 14/19/56 12/16/56 
f 19/25/57 17/23/57 35/43/57 
f 17/23/58 4/4/58 16/22/58 
f 17/23/59 16/22/59 35/43/59 
f 35/43/60 16/22/60 15/20/60 
f 37/45/61 38/46/61 39/47/61 
f 38/46/62 25/31/62 24/30/62 
f 38/46/63 24/30/63 39/47/63 
f 39/47/64 24/30/64 21/27/64 
f 37/48/65 40/49/65 38/50/65 
f 40/49/66 29/37/66 28/36/66 
f 40/49/67 28/36/67 38/50/67 
f 38/46/68 28/34/68 25/31/68 
f 37/51/69 41/52/69 40/49/69 
f 41/52/70 33/41/70 32/40/70 
f 41/52/71 32/40/71 40/49/71 
f 40/49/72 32/40/72 29/37/72 
f 37/53/73 42/54/73 41/52/73 
f 42/54/74 19/25/74 36/44/74 
f 42/54/75 36/44/75 41/52/75 
f 41/52/76 36/44/76 33/41/76 
f 37/55/77 39/47/77 42/54/77 
f 39/47/78 21/27/78 20/26/78 
f 39/47/79 20/26/79 42/54/79 
f 42/54/80 20/26/80 19/25/80 
# 80 faces

