# 3ds Max Wavefront OBJ Exporter v0.97b - (c)2007 guruware
# File Created: 08.12.2016 14:52:48

#
# object Torus001
#

v  6.3633 0.8660 -6.3633
v  -0.0000 0.8660 -8.9990
v  -0.0000 0.0000 -11.9990
v  8.4846 0.0000 -8.4846
v  6.3633 -0.8660 -6.3633
v  -0.0000 -0.8660 -8.9990
v  8.9990 0.8660 -0.0000
v  11.9990 0.0000 -0.0000
v  8.9990 -0.8660 -0.0000
v  6.3633 0.8660 6.3633
v  8.4846 0.0000 8.4846
v  6.3633 -0.8660 6.3633
v  -0.0000 0.8660 8.9990
v  -0.0000 0.0000 11.9990
v  -0.0000 -0.8660 8.9990
v  -6.3633 0.8660 6.3633
v  -8.4846 0.0000 8.4846
v  -6.3633 -0.8660 6.3633
v  -8.9990 0.8660 -0.0000
v  -11.9990 0.0000 -0.0000
v  -8.9990 -0.8660 -0.0000
v  -6.3633 0.8660 -6.3633
v  -8.4846 0.0000 -8.4846
v  -6.3633 -0.8660 -6.3633
# 24 vertices

vn 0.2151 -0.9526 -0.2151
vn 0.0000 -0.9526 -0.3041
vn 0.0000 0.0000 1.0000
vn -0.7071 0.0000 0.7071
vn 0.2151 0.9526 -0.2151
vn -0.0000 0.9526 -0.3041
vn 0.3041 -0.9526 0.0000
vn -1.0000 -0.0000 0.0000
vn 0.3041 0.9526 -0.0000
vn 0.2151 -0.9526 0.2151
vn -0.7071 -0.0000 -0.7071
vn 0.2151 0.9526 0.2151
vn -0.0000 -0.9526 0.3041
vn 0.0000 -0.0000 -1.0000
vn 0.0000 0.9526 0.3041
vn -0.2151 -0.9526 0.2151
vn 0.7071 0.0000 -0.7071
vn -0.2151 0.9526 0.2151
vn -0.3041 -0.9526 -0.0000
vn 1.0000 -0.0000 0.0000
vn -0.3041 0.9526 0.0000
vn -0.2151 -0.9526 -0.2151
vn 0.7071 -0.0000 0.7071
vn -0.2151 0.9526 -0.2151
# 24 vertex normals

vt 0.3333 0.1250 0.0000
vt 0.3333 0.0000 0.0000
vt 0.0000 0.0000 0.0000
vt 0.0000 0.1250 0.0000
vt 0.6667 0.1250 0.0000
vt 0.6667 0.0000 0.0000
vt 1.0000 0.1250 0.0000
vt 1.0000 0.0000 0.0000
vt 0.3333 0.2500 0.0000
vt 0.0000 0.2500 0.0000
vt 0.6667 0.2500 0.0000
vt 1.0000 0.2500 0.0000
vt 0.3333 0.3750 0.0000
vt 0.0000 0.3750 0.0000
vt 0.6667 0.3750 0.0000
vt 1.0000 0.3750 0.0000
vt 0.3333 0.5000 0.0000
vt 0.0000 0.5000 0.0000
vt 0.6667 0.5000 0.0000
vt 1.0000 0.5000 0.0000
vt 0.3333 0.6250 0.0000
vt 0.0000 0.6250 0.0000
vt 0.6667 0.6250 0.0000
vt 1.0000 0.6250 0.0000
vt 0.3333 0.7500 0.0000
vt 0.0000 0.7500 0.0000
vt 0.6667 0.7500 0.0000
vt 1.0000 0.7500 0.0000
vt 0.3333 0.8750 0.0000
vt 0.0000 0.8750 0.0000
vt 0.6667 0.8750 0.0000
vt 1.0000 0.8750 0.0000
vt 0.3333 1.0000 0.0000
vt 0.0000 1.0000 0.0000
vt 0.6667 1.0000 0.0000
vt 1.0000 1.0000 0.0000
# 36 texture coords

g Torus001
f 1/1/1 2/2/2 3/3/3 4/4/4 
f 5/5/5 6/6/6 2/2/2 1/1/1 
f 4/7/4 3/8/3 6/6/6 5/5/5 
f 7/9/7 1/1/1 4/4/4 8/10/8 
f 9/11/9 5/5/5 1/1/1 7/9/7 
f 8/12/8 4/7/4 5/5/5 9/11/9 
f 10/13/10 7/9/7 8/10/8 11/14/11 
f 12/15/12 9/11/9 7/9/7 10/13/10 
f 11/16/11 8/12/8 9/11/9 12/15/12 
f 13/17/13 10/13/10 11/14/11 14/18/14 
f 15/19/15 12/15/12 10/13/10 13/17/13 
f 14/20/14 11/16/11 12/15/12 15/19/15 
f 16/21/16 13/17/13 14/18/14 17/22/17 
f 18/23/18 15/19/15 13/17/13 16/21/16 
f 17/24/17 14/20/14 15/19/15 18/23/18 
f 19/25/19 16/21/16 17/22/17 20/26/20 
f 21/27/21 18/23/18 16/21/16 19/25/19 
f 20/28/20 17/24/17 18/23/18 21/27/21 
f 22/29/22 19/25/19 20/26/20 23/30/23 
f 24/31/24 21/27/21 19/25/19 22/29/22 
f 23/32/23 20/28/20 21/27/21 24/31/24 
f 2/33/2 22/29/22 23/30/23 3/34/3 
f 6/35/6 24/31/24 22/29/22 2/33/2 
f 3/36/3 23/32/23 24/31/24 6/35/6 
# 24 polygons

